<?xml version="1.0" encoding="utf-8"?>
<!-- Generator: Adobe Illustrator 27.0.0, SVG Export Plug-In . SVG Version: 6.00 Build 0)  -->
<svg version="1.1" id="Layer_1" xmlns="http://www.w3.org/2000/svg" xmlns:xlink="http://www.w3.org/1999/xlink" x="0px" y="0px"
	 viewBox="0 0 320 512" style="enable-background:new 0 0 320 512;" xml:space="preserve">
<style type="text/css">
	.st0{fill:#FFFFFF;}
</style>
<path class="st0" d="M312.1,375c9.4,9.4,9.4,24.6,0,33.9s-24.6,9.4-33.9,0L160,289.9l-119,119c-9.4,9.4-24.6,9.4-33.9,0
	s-9.4-24.6,0-33.9l119-119L7,136.1c-9.4-9.4-9.4-24.6,0-33.9s24.6-9.4,33.9,0l119,119.9l119-119c9.4-9.4,24.6-9.4,33.9,0
	s9.4,24.6,0,33.9l-119,119L312.1,375z"/>
</svg>
